HIERARCHY
ROOT Hips
{
	OFFSET 0.00000 0.00000 0.00000
	CHANNELS 6 Xposition Yposition Zposition Zrotation Yrotation Xrotation 
	JOINT LHipJoint
	{
		OFFSET 0 0 0
		CHANNELS 3 Zrotation Yrotation Xrotation
		JOINT LeftHip
		{
			OFFSET 1.41496 -1.84582 0.78394
			CHANNELS 3 Zrotation Yrotation Xrotation
			JOINT LeftKnee
			{
				OFFSET 2.58040 -7.08960 0.00000
				CHANNELS 3 Zrotation Yrotation Xrotation
				JOINT LeftAnkle
				{
					OFFSET 2.64719 -7.27309 0.00000
					CHANNELS 3 Zrotation Yrotation Xrotation
					JOINT LeftToe
					{
						OFFSET 0.20718 -0.56921 2.20259
						CHANNELS 3 Zrotation Yrotation Xrotation
						End Site
						{
							OFFSET 0.00000 -0.00000 1.14243
						}
					}
				}
			}
		}
	}
	JOINT RHipJoint
	{
		OFFSET 0 0 0
		CHANNELS 3 Zrotation Yrotation Xrotation
		JOINT RightHip
		{
			OFFSET -1.40551 -1.84582 0.78394
			CHANNELS 3 Zrotation Yrotation Xrotation
			JOINT RightKnee
			{
				OFFSET -2.56572 -7.04926 0.00000
				CHANNELS 3 Zrotation Yrotation Xrotation
				JOINT RightAnkle
				{
					OFFSET -2.57974 -7.08778 0.00000
					CHANNELS 3 Zrotation Yrotation Xrotation
					JOINT RightToe
					{
						OFFSET -0.26704 -0.73369 2.20815
						CHANNELS 3 Zrotation Yrotation Xrotation
						End Site
						{
							OFFSET -0.00000 -0.00000 1.16246
						}
					}
				}
			}
		}
	}
	JOINT lowerback
	{
		OFFSET 0 0 0
		CHANNELS 3 Zrotation Yrotation Xrotation
		JOINT Chest
		{
			OFFSET -0.04690 2.05196 -0.07017
			CHANNELS 3 Zrotation Yrotation Xrotation
			JOINT Chest2
			{
				OFFSET 0.04085 2.05260 0.00800
				CHANNELS 3 Zrotation Yrotation Xrotation
				JOINT lowerneck
				{
					OFFSET 0 0 0
					CHANNELS 3 Zrotation Yrotation Xrotation
					JOINT Neck
					{
						OFFSET -0.03582 1.80995 0.19301
						CHANNELS 3 Zrotation Yrotation Xrotation
						JOINT Head
						{
							OFFSET 0.00952 1.80195 -0.36389
							CHANNELS 3 Zrotation Yrotation Xrotation
							End Site
							{
								OFFSET 0.00392 1.85062 -0.14494
							}
						}
					}
				}
				JOINT LeftCollar
				{
					OFFSET 0 0 0
					CHANNELS 3 Zrotation Yrotation Xrotation
					JOINT LeftShoulder
					{
						OFFSET 3.55224 1.39726 -0.13667
CHANNELS 3 Zrotation Xrotation Yrotation
						JOINT LeftElbow
						{
OFFSET 0 -5.145070 -0.000000
CHANNELS 3 Zrotation Xrotation Yrotation
							JOINT LeftWrist
							{
OFFSET 0 -3.506460 0.000000
CHANNELS 3 Zrotation Xrotation Yrotation
								JOINT lhand
								{
									OFFSET 0 0 0
CHANNELS 3 Zrotation Xrotation Yrotation
									JOINT LFingers
									{
OFFSET 0 -0.629970 0.000000
CHANNELS 3 Zrotation Xrotation Yrotation
										End Site
										{
OFFSET 0 -0.507900 0.000000
										}
									}
								}
								JOINT LThumb
								{
OFFSET 0 0.000000 0.000000
CHANNELS 3 Zrotation Xrotation Yrotation
									End Site
									{
OFFSET 0 -0.515650 0.515650
									}
								}
							}
						}
					}
				}
				JOINT RightCollar
				{
					OFFSET 0 0 0
					CHANNELS 3 Zrotation Yrotation Xrotation
					JOINT RightShoulder
					{
						OFFSET -3.06467 1.61290 -0.28813
CHANNELS 3 Zrotation Xrotation Yrotation
						JOINT RightElbow
						{
OFFSET 0 -5.232000 -0.000000
CHANNELS 3 Zrotation Xrotation Yrotation
							JOINT RightWrist
							{
OFFSET 0 -3.656410 0.000000
CHANNELS 3 Zrotation Xrotation Yrotation
								JOINT rhand
								{
									OFFSET 0 0 0
CHANNELS 3 Zrotation Xrotation Yrotation
									JOINT RFingers
									{
OFFSET 0 -0.656810 0.000000
CHANNELS 3 Zrotation Xrotation Yrotation
										End Site
										{
OFFSET 0 -0.529530 0.000000
										}
									}
								}
								JOINT RThumb
								{
OFFSET 0 0.000000 0.000000
CHANNELS 3 Zrotation Xrotation Yrotation
									End Site
									{
OFFSET 0 -0.537620 0.537620
									}
								}
							}
						}
					}
				}
			}
		}
	}
}
MOTION
Frames: 15
Frame Time: .0083333
-8.1266 15.5454 24.6192 170.0760 1.5324 -152.6770 0.0000 0.0000 0.0000 -30.4901 -7.9650 -11.7045 5.0071 13.3917 40.8532 -0.8385 -23.4036 -9.7868 0.0147 0.7818 2.1486 0.0000 0.0000 0.0000 6.9560 5.2573 -67.1319 -20.5058 -19.9939 91.4791 -1.2648 3.4709 -20.3972 -4.4542 12.7415 -38.4083 0.3170 -1.5286 12.8482 3.8112 -1.7262 -3.3383 4.3559 -0.7412 -10.7601 0.4519 2.6955 -16.5560 -9.2713 4.6640 -0.2043 -2.5646 2.2193 2.8297 -0.0000 0.0000 0.0000 2.2205 -5.9236 -51.2013 90.8206 -59.9975 60.7106 26.0368 -6.8462 13.4462 0.0 0.0 0.0 -7.1250 0.0 0.0 -0.9145 15.0805 -0.6452 -0.0000 0.0000 0.0000 -16.1003 27.2134 25.1827 -47.7082 -52.0283 -24.3555 -36.1896 -0.9259 0.6296 0.0 0.0 0.0 7.1250 0.0 -0.0 -7.6299 30.7095 -2.6846
-8.1232 15.5836 24.2347 169.5850 2.3675 -152.8060 0.0000 0.0000 0.0000 -31.3025 -7.4845 -9.8597 4.5366 12.8421 38.7803 -1.2044 -22.3166 -4.3149 0.0201 0.9150 2.5149 0.0000 0.0000 0.0000 6.7364 6.2385 -69.5591 -19.9939 -20.0000 89.9822 -1.3104 4.6023 -20.6142 -4.5497 12.8581 -38.8395 0.0182 -1.4344 13.0137 3.5650 -1.6549 -3.2644 4.2432 -0.6895 -10.7777 0.2624 2.7549 -16.4669 -9.3352 4.7858 0.0403 -2.5437 2.2634 2.8948 0.0000 -0.0000 0.0000 2.1876 -6.2304 -51.4494 92.2186 -59.9814 61.9212 26.0872 -6.5984 13.9773 0.0 0.0 0.0 -7.1250 0.0 0.0 -0.9209 14.4909 -0.6612 0.0000 -0.0000 0.0000 -16.8103 27.7379 26.0645 -47.4791 -51.9268 -24.175 -35.9025 -0.7402 0.2428 0.0 0.0 0.0 7.1250 0.0 -0.0 -7.3685 30.2361 -2.6753
-8.1173 15.6496 23.8341 169.0520 3.3052 -153.0250 0.0000 0.0000 0.0000 -32.1264 -6.8987 -8.1423 4.0957 12.2866 36.7536 -1.3333 -20.6597 1.9061 0.0262 1.0456 2.8744 0.0000 0.0000 0.0000 6.7401 7.1150 -71.4523 -19.3228 -19.9890 88.0196 -1.3472 5.7509 -20.8053 -4.6433 12.9704 -39.2578 -0.3771 -1.4136 13.2831 3.2826 -1.5420 -3.1421 4.1268 -0.5486 -10.8034 0.0598 2.8042 -16.3926 -9.3907 4.8981 0.2567 -2.5188 2.3048 2.9523 0.0000 -0.0000 0.0000 2.1402 -6.3877 -51.5744 93.2582 -59.9598 62.8213 26.1498 -6.0972 14.3168 0.0 0.0 0.0 -7.1250 0.0 0.0 -0.9053 14.1101 -0.6574 0.0000 -0.0000 0.0000 -17.3889 27.9915 26.8691 -47.1181 -51.7649 -23.8911 -35.539 -0.5412 -0.1132 0.0 0.0 0.0 7.1250 0.0 -0.0 -7.0518 29.8039 -2.632
-8.1096 15.7152 23.4303 168.4790 4.3219 -153.3060 0.0000 0.0000 0.0000 -32.9483 -6.2542 -6.6665 3.7126 11.7679 34.9156 -1.1242 -18.4188 8.3675 0.0292 1.1025 3.0308 0.0000 0.0000 0.0000 6.9543 7.8998 -73.0290 -18.5772 -19.9514 85.8368 -1.3730 6.7714 -20.9603 -4.7628 13.1116 -39.7878 -0.8058 -1.2505 13.6133 2.9563 -1.4519 -2.9815 4.0022 -0.4995 -10.8215 -0.1599 2.8487 -16.3741 -9.4203 5.0098 0.4706 -2.4827 2.3463 3.0162 -0.0000 0.0000 0.0000 2.1007 -6.4282 -51.5769 93.9387 -59.9413 63.4104 26.2179 -5.4387 14.4727 0.0 0.0 0.0 -7.1250 0.0 0.0 -0.8719 13.9301 -0.6364 -0.0000 0.0000 0.0000 -17.8179 27.9524 27.5636 -46.6379 -51.5461 -23.5145 -35.1265 -0.331 -0.4156 0.0 0.0 0.0 7.1250 0.0 -0.0 -6.7036 29.4408 -2.5587
-8.1002 15.7773 23.0255 167.8660 5.3748 -153.6330 0.0000 0.0000 0.0000 -33.7523 -5.5705 -5.4200 3.3801 11.2863 33.2517 -0.5908 -15.8107 14.7333 0.0396 1.2845 3.5318 0.0000 0.0000 0.0000 7.4105 8.5554 -74.3146 -17.7789 -19.8813 83.4937 -1.3841 7.5258 -21.0383 -4.8988 13.2689 -40.3836 -1.2832 -1.0858 14.0030 2.5987 -1.3725 -2.7895 3.8739 -0.4531 -10.8386 -0.3892 2.8853 -16.3804 -9.4340 5.1134 0.6587 -2.4408 2.3856 3.0746 0.0000 0.0000 0.0000 2.0837 -6.3556 -51.4591 94.2832 -59.9306 63.7085 26.2755 -4.7701 14.4844 0.0 0.0 0.0 -7.1250 0.0 0.0 -0.8339 13.9096 -0.609 0.0000 0.0000 0.0000 -18.1049 27.6397 28.1413 -46.0695 -51.2818 -23.0702 -34.6791 -0.1178 -0.6389 0.0 0.0 0.0 7.1250 0.0 -0.0 -6.3365 29.1768 -2.457
-8.0894 15.8338 22.6220 167.2080 6.4126 -153.9660 0.0000 0.0000 0.0000 -34.5280 -4.9408 -4.4910 3.1385 10.9160 31.9971 0.1294 -13.3789 20.4850 0.0649 1.6439 4.5226 0.0000 0.0000 0.0000 8.1188 9.0358 -75.3751 -16.9700 -19.7784 81.1093 -1.3883 7.9227 -21.0743 -5.0357 13.4238 -40.9765 -1.7881 -0.9375 14.3967 2.2121 -1.3234 -2.5617 3.7346 -0.4205 -10.8161 -0.6013 2.9125 -16.4449 -9.4534 5.2060 0.8228 -2.4037 2.4200 3.1347 -0.0000 0.0000 0.0000 2.1099 -6.2309 -51.2242 94.3025 -59.9299 63.7252 26.2792 -4.1978 14.4064 0.0 0.0 0.0 -7.1250 0.0 0.0 -0.8250 13.9947 -0.6011 -0.0000 0.0000 0.0000 -18.243 27.0389 28.5816 -45.4420 -50.9832 -22.5816 -34.2085 0.0687 -0.7727 0.0 0.0 0.0 7.1250 0.0 -0.0 -5.9601 29.0233 -2.3315
-8.0770 15.8841 22.2214 166.5190 7.3874 -154.3150 0.0000 0.0000 0.0000 -35.2492 -4.4087 -3.8642 3.0065 10.7055 31.2931 0.8507 -11.5209 25.1258 0.1120 2.1580 5.9426 0.0000 0.0000 0.0000 9.0945 9.3207 -76.2009 -16.1741 -19.6454 78.7500 -1.3897 7.9127 -21.0851 -5.1693 13.5720 -41.5491 -2.2932 -0.8183 14.8232 1.8074 -1.3134 -2.3029 3.5841 -0.4059 -10.7756 -0.7942 2.9274 -16.5534 -9.4845 5.2828 0.9531 -2.3741 2.4480 3.1913 -0.0000 -0.0000 0.0000 2.1839 -6.0764 -50.8738 94.0310 -59.9385 63.4902 26.2159 -3.7853 14.2968 0.0 0.0 0.0 -7.1250 0.0 0.0 -0.8589 14.1235 -0.6234 -0.0000 -0.0000 0.0000 -18.2503 26.188 28.8869 -44.7869 -50.6637 -22.0738 -33.7471 0.1965 -0.8644 0.0 0.0 0.0 7.1250 0.0 -0.0 -5.5947 28.9212 -2.2009
-8.0629 15.9284 21.8251 165.8170 8.2637 -154.6790 0.0000 0.0000 0.0000 -35.8901 -4.0153 -3.5413 3.0039 10.7013 31.2791 1.3873 -10.4203 28.2060 0.1663 2.6271 7.2423 0.0000 0.0000 0.0000 10.3280 9.4065 -76.7966 -15.4072 -19.4866 76.4603 -1.3886 7.5404 -21.0730 -5.2835 13.6961 -42.0334 -2.7677 -0.7341 15.2953 1.3937 -1.3422 -2.0061 3.4154 -0.4101 -10.7166 -0.9681 2.9243 -16.7019 -9.5333 5.3362 1.0194 -2.3548 2.4678 3.2347 -0.0000 -0.0000 0.0000 2.3016 -5.946 -50.4054 93.4971 -59.9537 63.0281 26.0465 -3.5218 14.2011 0.0 0.0 0.0 -7.1250 0.0 0.0 -0.9662 14.2507 -0.6987 -0.0000 -0.0000 0.0000 -18.1388 25.1142 29.0528 -44.1514 -50.3459 -21.5834 -33.3164 0.2566 -0.9377 0.0 0.0 0.0 7.1250 0.0 -0.0 -5.2551 28.8412 -2.0762
-8.0467 15.9676 21.4352 165.1010 9.0067 -155.0540 0.0000 0.0000 0.0000 -36.4336 -3.7738 -3.5483 3.1499 10.9339 32.0571 1.6409 -9.9307 29.5533 0.1996 2.8771 7.9369 0.0000 0.0000 0.0000 11.7549 9.2937 -77.1763 -14.6825 -19.3081 74.2784 -1.3804 6.9745 -21.0133 -5.3461 13.7633 -42.2973 -3.2046 -0.6901 15.8296 0.9790 -1.4137 -1.6736 3.2351 -0.4342 -10.6505 -1.1262 2.8993 -16.8627 -9.6057 5.3598 0.9865 -2.3480 2.4792 3.2495 -0.0000 -0.0000 0.0000 2.4517 -5.88 -49.8218 92.7283 -59.9719 62.3625 25.7674 -3.3511 14.124 0.0 0.0 0.0 -7.1250 0.0 0.0 -1.1497 14.3711 -0.8285 -0.0000 -0.0000 0.0000 -17.9379 23.8565 29.0925 -43.5865 -50.0569 -21.1494 -32.9434 0.2319 -1.0139 0.0 0.0 0.0 7.1250 0.0 -0.0 -4.9604 28.7573 -1.9689
-8.0274 16.0015 21.0524 164.3920 9.5979 -155.4590 0.0000 0.0000 0.0000 -36.8389 -3.6627 -3.8755 3.4614 11.4069 33.6649 1.6076 -9.8132 29.2495 0.1850 2.7700 7.6392 0.0000 0.0000 0.0000 13.3278 9.0037 -77.3256 -14.0056 -19.1157 72.2216 -1.3586 6.3124 -20.8637 -5.3645 13.7829 -42.3746 -3.5889 -0.6810 16.4649 0.5757 -1.5166 -1.3001 3.0468 -0.4722 -10.5940 -1.2806 2.8453 -17.0123 -9.6924 5.3437 0.8336 -2.3504 2.4799 3.2247 -0.0000 -0.0000 0.0000 2.6167 -5.9054 -49.1296 91.7570 -59.9883 61.5215 25.4026 -3.1807 14.0639 0.0 0.0 0.0 -7.1250 0.0 0.0 -1.3932 14.4829 -1.0008 -0.0000 -0.0000 0.0000 -17.672 22.4529 29.0102 -43.1141 -49.8104 -20.7878 -32.6521 0.1406 -1.1204 0.0 0.0 0.0 7.1250 0.0 -0.0 -4.7276 28.6365 -1.8895
-8.0045 16.0293 20.6777 163.7130 10.0455 -155.9150 0.0000 0.0000 0.0000 -37.0756 -3.6524 -4.5060 3.9497 12.0932 36.0626 1.3736 -9.7901 27.6285 0.1300 2.3241 6.4023 0.0000 0.0000 0.0000 14.9741 8.5800 -77.2270 -13.3811 -18.9155 70.3050 -1.3181 5.6854 -20.5765 -5.3128 13.7276 -42.1571 -3.9174 -0.6933 17.2359 0.1942 -1.6307 -0.8780 2.8561 -0.5129 -10.5588 -1.4406 2.7579 -17.1429 -9.7857 5.2830 0.5587 -2.3585 2.4686 3.1578 -0.0000 -0.0000 0.0000 2.7768 -6.0467 -48.3396 90.6100 -59.9986 60.5283 24.9992 -2.9135 13.9925 0.0 0.0 0.0 -7.1250 0.0 0.0 -1.6626 14.6108 -1.1899 -0.0000 -0.0000 0.0000 -17.3717 20.9376 28.8141 -42.7610 -49.6232 -20.5185 -32.4594 0.0148 -1.2777 0.0 0.0 0.0 7.1250 0.0 -0.0 -4.5684 28.4543 -1.8452
-7.9780 16.0494 20.3113 163.0840 10.3704 -156.4060 0.0000 0.0000 0.0000 -37.1244 -3.7593 -5.4498 4.6194 12.9419 39.1515 1.0961 -9.4518 25.3014 0.0782 1.8035 4.9630 0.0000 0.0000 0.0000 16.6234 8.0750 -76.9038 -12.8074 -18.7115 68.5264 -1.2569 5.1090 -20.1212 -5.2004 13.6059 -41.6812 -4.1936 -0.7125 18.1310 -0.1568 -1.7359 -0.4121 2.6692 -0.5459 -10.5430 -1.6196 2.6366 -17.2341 -9.8676 5.1767 0.1675 -2.3650 2.4459 3.0464 -0.0000 0.0000 0.0000 2.9206 -6.3113 -47.4597 89.3258 -59.9983 59.4161 24.6044 -2.4864 13.8798 0.0 0.0 0.0 -7.1250 0.0 0.0 -1.9239 14.7814 -1.3702 -0.0000 0.0000 0.0000 -17.077 19.3345 28.5332 -42.5326 -49.5008 -20.3446 -32.3797 -0.1126 -1.4884 0.0 0.0 0.0 7.1250 0.0 -0.0 -4.4937 28.2074 -1.8412
-7.9478 16.0622 19.9524 162.5290 10.6139 -156.9370 0.0000 0.0000 0.0000 -36.9703 -3.9703 -6.6815 5.4659 13.8900 42.7985 0.8489 -8.8555 22.7678 0.0305 1.1280 3.1009 0.0000 0.0000 0.0000 18.2082 7.5491 -76.3372 -12.2803 -18.5066 66.8744 -1.1731 4.6027 -19.4636 -5.0031 13.3873 -40.8360 -4.4248 -0.7197 19.1506 -0.4710 -1.8072 0.0941 2.4898 -0.5581 -10.5503 -1.8197 2.4822 -17.2782 -9.9265 5.0251 -0.3069 -2.3656 2.4104 2.8992 0.0000 0.0000 0.0000 3.0381 -6.6826 -46.4977 87.9614 -59.9843 58.2347 24.2563 -1.8995 13.7208 0.0 0.0 0.0 -7.1250 0.0 0.0 -2.1513 14.995 -1.5225 0.0000 0.0000 0.0000 -16.8248 17.6634 28.1924 -42.4239 -49.4422 -20.262 -32.413 -0.2224 -1.7507 0.0 0.0 0.0 7.1250 0.0 -0.0 -4.5027 27.8969 -1.8781
-7.9142 16.0677 19.5996 162.0610 10.8109 -157.4750 0.0000 0.0000 0.0000 -36.6109 -4.2937 -8.2131 6.4786 14.8766 46.8735 0.6355 -8.2646 20.2650 0.0019 0.2833 0.7783 0.0000 0.0000 0.0000 19.6856 7.0429 -75.5505 -11.7930 -18.3018 65.3313 -1.0689 4.0839 -18.6052 -4.7339 13.0777 -39.6600 -4.6145 -0.7057 20.2432 -0.7466 -1.8299 0.6360 2.3155 -0.5430 -10.5552 -1.8660 2.3263 -17.1296 -9.9016 4.8181 -1.1329 -2.5876 2.3820 2.8984 -0.0000 0.0000 0.0000 3.1373 -7.1565 -45.4593 86.5759 -59.9557 57.035 24.0011 -1.2196 13.5203 0.0 0.0 0.0 -7.1250 0.0 0.0 -2.3134 15.2417 -1.6252 -0.0000 0.0000 0.0000 -16.6512 15.9152 27.823 -42.4180 -49.439 -20.2575 -32.546 -0.2861 -2.0313 0.0 0.0 0.0 7.1250 0.0 -0.0 -4.5865 27.5617 -1.9496
-7.8776 16.0664 19.2515 161.6980 10.9941 -158.0180 0.0000 0.0000 0.0000 -36.0364 -4.7093 -10.0274 7.6392 15.8473 51.2523 0.4641 -7.7769 17.9981 0.0042 -0.4192 -1.1518 0.0000 0.0000 0.0000 21.0421 6.5955 -74.5335 -11.3436 -18.0992 63.8924 -0.9511 3.4547 -17.5946 -4.2841 12.5292 -37.6307 -4.7628 -0.6628 21.4090 -0.9793 -1.7938 1.1993 2.1469 -0.4955 -10.5722 -2.1039 2.1133 -17.0869 -9.9006 4.5866 -1.6535 -2.5599 2.3166 2.6902 -0.0000 0.0000 0.0000 3.2264 -7.6955 -44.3538 85.2398 -59.9142 55.8788 23.8725 -0.5894 13.2947 0.0 0.0 0.0 -7.1250 0.0 0.0 -2.3880 15.4999 -1.6644 -0.0000 0.0000 0.0000 -16.5986 14.1038 27.4656 -42.5007 -49.4836 -20.3204 -32.7463 -0.3155 -2.3073 0.0 0.0 0.0 7.1250 0.0 -0.0 -4.7209 27.2291 -2.0441
